<svg xmlns="http://www.w3.org/2000/svg" viewBox="0 0 576.09 1157.86"><defs><style>.cls-1{fill:none;stroke:#1d1d1b;}</style></defs><g id="Layer_2" data-name="Layer 2"><g id="Layer_1-2" data-name="Layer 1"><path class="cls-1" d="M4.85,144.79c167.3,10.08,99.07,136.44,31.44,87.8C32.73,201.74,16.12,169.11.7,147.75Zm176.79-53.4c-19.58,75.35-52.21,214.17-58.73,249.17-4.15,21.35-8.31,43.9-7.71,59.92,1.18,34.4,28.47,54,26.69,109.75-.59,31.44-23.13,53.39-55.76,53.39-14.83,0-31.45-7.12-37.38-31.44,12.46-62.89,10.09-124-4.15-133.48-8.31-5.94-18.39-8.9-31.44-10.09V377.93H39.85c9.5,0,11.87,0,18.39-12.46C70.7,342.34,70.7,342.34,172.74,89ZM48.16,6c178,14.23,106.19,148.31,34.41,96.1C77.82,68.26,60,33.26,44,8.93ZM502,313.27c-1.78,43.31-4.74,78.31-7.71,106.78l22.54-38.56s32.63,33.82,49.84,55.17c-1.78,6.53-7.72,9.5-15.43,9.5H491.31c-7.71,49.83-19,74.75-35.59,90.76-21.36,20.77-49.24,25.51-83.65,26.11.6-21.36-1.18-36.19-8.3-46.28-8.31-11.86-20.17-19-41.53-24.32v-7.71c16.61,1.78,40.93,2.37,52.8,2.37,8.9,0,14.83-1.78,20.17-7.12,5.93-5.34,10.68-16,14.83-33.81H257.58l-26.7,34.4L158.5,440.82a98.87,98.87,0,0,1,19-14.24c6.52-29.66,13-70,19-113.31H144.86l-4.75-16.61h58.14c5.34-38,10.09-77.12,13.65-112.13a391.35,391.35,0,0,1-56.36,42.72l-4.75-4.15C189.35,170.3,221.39,76.56,233.85.63L343,30.29c-2.37,6.53-7.12,9.49-22.54,7.71a436.66,436.66,0,0,1-21.95,39.16H450.38l40.34-55.77S536.4,58.77,563.1,84.28c-1.78,6.52-8.31,9.49-16.61,9.49H288.42c-8.3,12.46-17.2,24.91-26.69,36.78l48.64,23.73H423.68l40.94-41.53,68.22,59.92c-4.74,5.34-13.05,9.49-26.69,11.86-.6,35-1.78,67-3,95.52l20.76-35.6s34.41,36.19,51.62,59.33c-1.19,6.52-7.12,9.49-15.43,9.49ZM413.6,429.54c4.75-27.28,8.3-65.25,11.27-116.27H274.19c-6.53,42.12-12.46,84.24-18.39,116.27Zm-121-258.65c-3.56,33.22-9.49,78.9-16,125.77h149.5c1.78-35.6,3-77.72,4.15-125.77Zm13.64,151.87c143,24.32,80.09,131.11,24.92,86-.59-29.07-14.83-62.29-30.26-83Zm5.34-130.51c138.23,20.17,83.65,121.61,29.07,81.86-4.15-27.28-20.17-58.73-34.41-78.9Z"/><path class="cls-1" d="M547.67,1057.58c17.21,27.29,24.33,47.46,10.09,64.07-26.7,29.07-73.56,11.27-99.67-6.53C387.5,1061.73,353.68,984,338.26,898H254.61v112.12c29.66-4.75,61.7-10.08,94.33-16l1.18,5.94c-27.88,21.35-80.09,58.73-148.31,97.88-4.75,5.34-8.9,8.9-13.64,11.27l-47.46-86c27.88-14.83,32-21.36,32-35.59V735.45l86,27.29c67-17.8,141.19-43.9,183.91-64.07H137.15V838.08c0,101.44-5.94,234.33-128.74,319.17l-4.74-3.56c47.46-92.55,49.24-211.2,49.24-315.61V649.43l96.69,32.62H292c-3.56-1.77-7.12-3.55-11.27-5.93-4.74-30.25-23.13-62.29-40.93-81.27l3.56-3c135.26-6.52,131.1,71.19,88.39,90.17H441.48l40.94-56.35s45.68,38,72.37,63.47c-1.18,6.53-7.71,9.5-16.61,9.5H446.23L518,774c-8.3,5.34-22.54,5.34-42.12-3-19.58,2.37-42.71,4.15-68.22,5.93-.6,36.19,1.78,71.19,7.71,104.42h21.36l40.34-55.77S522.76,863,549.45,888.5c-1.78,6.53-8.3,9.5-16.61,9.5H418.35c13,59.91,39.15,110.34,83,140,7.71,5.34,13.64,4.16,19-3.56,8.31-12.45,21.36-38,30.85-60.51l5.94,1.78Zm-179.75,3s42.12,33.81,66.44,57c-1.18,6.52-7.71,9.49-16,9.49H207.15l-4.75-16.61H331.14ZM335.29,881.39a808.23,808.23,0,0,1-7.71-101.45c-24.32.59-49.24.59-73,.59V881.39Z"/></g></g></svg>