<svg xmlns="http://www.w3.org/2000/svg" viewBox="0 0 552.79 1154.6"><defs><style>.cls-1{fill:none;stroke:#1d1d1b;}</style></defs><g id="Layer_2" data-name="Layer 2"><g id="Layer_1-2" data-name="Layer 1"><path class="cls-1" d="M96,206V526.3C96,537,64.57,557.74,26.6,557.74H13V7.8L98.39,43.4h62.88L195.68,6.62l70.59,52.8c-3.56,4.15-10.08,9.49-21.35,11.27V223.15c-.6,4.16-39.16,17.8-64.07,17.8H167.2V206ZM96,60v55.77H167.2V60ZM167.2,189.34v-57H96v57ZM337.46,441.47c1.19,48.64-10.67,85.43-87.8,91.95,0-24.32-3-42.12-9.49-54s-16.61-20.77-43.9-24.92v-7.71s45.68,3,57.55,3c8.3,0,10.08-3,10.08-9.49l-1.19-61.1c-39.15,40.34-92.54,73-154.83,97.29l-4.75-7.12c52.8-38,93.14-93.14,116.87-149.5H118.56l-4.75-16.61H261.53l-1.19-64.66,96.11,8.3c-1.19,8.31-5.93,14.24-21.95,16.61l.59,39.75h1.78l30.85-46.87s35,32.63,54.58,54c-1.19,6.53-7.12,9.49-15.43,9.49H335.68ZM537.39,60.6c-4.15,4.75-11.27,10.09-23.73,12.46V463.42c0,55.76-11.27,86-97.29,93.14-1.19-27.29-3.56-47.46-10.68-59.33-7.71-12.46-16.61-21.35-42.12-26.69v-7.71s44.49,3,55.17,3c8.9,0,10.68-4.75,10.68-11.27V206h-73v5.34c0,7.12-35,24.91-68.23,24.91H277V12L358.82,43.4h64.66L460.86.69ZM356.45,60v55.77h73V60Zm73,129.33v-57h-73v57Z"/><path class="cls-1" d="M217,661c-3.56,4.15-10.68,8.89-22,11.27v395.1c-.59,5.34-35,21.36-61.1,21.36H122.12v-50.43H73.47v51c0,8.9-27.88,26.69-61.1,26.69H.5V612.9l75.34,32h40.34l34.41-37.38Zm-143.57.59v105h48.65v-105Zm48.65,121.61H73.47V892.91h48.65Zm0,238.49V909.53H73.47v112.12Zm423-88.4c-4.15,5.94-11.27,6.53-22.54,3.56-18.39,11.28-55.18,29.07-92,41.53,33.82,38.56,75.35,66.45,121.62,81.87l-1.19,6.53c-28.47,8.3-51.61,34.4-61.1,74.74-80.09-55.76-115.68-141.19-134.67-280H314.33v191.62c22.54-4.15,46.86-8.3,71.19-13l1.18,5.93c-21.95,18.39-68.22,56.36-122.8,93.14a47.3,47.3,0,0,1-18.39,14.83l-37.37-81.27c24.32-12.46,28.47-19.58,28.47-35.6V601L322,634.85H423.48l35-38,71.19,54.58c-3.56,4.75-11.28,9.5-23.14,12.46V862.07c-.59,4.15-17.21,13-36.19,18.39ZM429.42,736.89V651.46H314.33v85.43Zm-115.09,108H429.42V753.5H314.33Zm50.42,16.61c11.87,38,29.67,71.78,52.21,100.26,19-26.69,38.56-60.51,48.65-80.09a107.65,107.65,0,0,1-23.14,3H429.42V861.47Z"/></g></g></svg>