<svg xmlns="http://www.w3.org/2000/svg" viewBox="0 0 575.67 1155.5"><defs><style>.cls-1{fill:none;stroke:#1d1d1b;}</style></defs><g id="Layer_2" data-name="Layer 2"><g id="Layer_1-2" data-name="Layer 1"><path class="cls-1" d="M310.37,176.15C332.32,291.83,405.88,403.36,572,468l-.59,7.12c-44.49,8.3-70,36.78-77.72,86C368.51,479.3,323.42,336.92,305.62,214.71c-8.3,59.33-24.91,115.09-58.13,166.7,176.78,54.58,87.2,199.93,11.86,128.15,1.78-38.57-8.3-77.72-23.13-110.94C191.13,460.91,119.94,516.67,6,561.76L.7,554.05C165,440.74,207.15,313.19,217.82,174.37H18.49l-4.74-16.61H219c3-51,2.37-103.22,2.37-157.21L339.44,11.82c-1.78,8.9-7.12,14.24-21.95,16.61-1.19,43.9-1.78,87.21-5.34,129.33H422.49l49.24-62.29s55.18,41.53,88.4,69.41c-1.78,6.52-8.9,9.49-17.8,9.49H311Z"/><path class="cls-1" d="M575,937.87c-4.75,5.34-12.46,8.9-24.92,10.68-10.68,112.13-29.07,164.33-62.88,186.88-20.17,13.64-43.9,19.57-74.16,19,.6-21.36-1.18-39.16-8.3-49.24-7.12-10.68-17.8-18.39-38-23.14v-3c-38.56,30.85-85.43,55.76-143,75.34L219,1146.1c89.58-48.64,145.94-122.21,174.42-210.6h-3c-42.71,73.56-118.65,129.92-213.57,167.3l-5.34-8.31c64.07-40.34,115.09-99.07,145.94-159h-5.93c-28.48,27.88-64.67,51-107.38,69.41-11.87,23.73-35.59,38-75.94,38.56,0-21.36-2.37-52.2-7.71-61.7-3-6.52-8.3-11.27-16.61-14.83v163.74C103.92,1136,80.19,1155,41,1155H26.8V605.66l85.43,31.44h22.54l38.56-37.38,68.22,62.89V603.88l80.69,30.25H431.39l36.19-40.34,67.63,50.43c-4.15,5.34-9.49,9.49-23.13,11.86V809.73c12.45,10.68,42.71,35.6,62.29,54-1.78,6.52-7.72,9.49-16.62,9.49H358.42c-8.3,16.61-19,31.44-30.84,45.68H469.36l39.16-36.78ZM121.13,958c5.33,0,8.3-.59,11.86-3,5.93-4.15,9.49-13.65,9.49-29.66,0-38.56-6.52-83.06-26.1-118.65,8.31-38.56,19-106.79,23.73-153.06H103.92V958ZM241.55,672.1c-4.74,2.37-11.27,3.56-20.76,3.56C199.43,711.25,162.65,768.8,131.21,805c56.36,35.59,83.65,94.92,83.65,143.56a206.12,206.12,0,0,1-1.78,27.89c27.88-29.67,48.65-65.86,62.29-103.23h-67l-4.74-16.61H468.17l26.7-36.78A149.5,149.5,0,0,1,448,826.94H433.77V805H316.3V821.6c0,5.34-23.13,17.2-61.1,17.2H241.55Zm74.75-21.36v61.11H433.77V650.74Zm117.47,77.72H316.3v59.92H433.77Zm38.56,207c-21.36,55.17-54,101.45-100.26,140,14.83.59,36.19,1.78,46.27,1.78,8.31,0,13.65-1.19,19-4.75,14.83-11.27,29.06-56.36,36.78-137Z"/></g></g></svg>